<?xml version="1.0" standalone="no"?>
<!DOCTYPE svg PUBLIC "-//W3C//DTD SVG 20010904//EN"
 "http://www.w3.org/TR/2001/REC-SVG-20010904/DTD/svg10.dtd">
<svg version="1.0" xmlns="http://www.w3.org/2000/svg"
 width="512.000000pt" height="512.000000pt" viewBox="0 0 512.000000 512.000000"
 preserveAspectRatio="xMidYMid meet">

<g transform="translate(0.000000,512.000000) scale(0.100000,-0.100000)"
fill="#000000" stroke="none">
<path d="M2035 5108 c-2 -7 -20 -94 -39 -192 -20 -99 -38 -181 -40 -183 -2 -2
-57 -22 -122 -45 -66 -22 -179 -69 -252 -104 l-134 -63 -165 110 -166 111
-369 -370 -370 -369 111 -166 110 -165 -63 -134 c-35 -73 -82 -187 -105 -253
-22 -66 -46 -122 -53 -124 -7 -3 -94 -21 -193 -41 l-180 -36 0 -524 0 -524
180 -36 c99 -20 186 -38 193 -41 7 -2 31 -58 53 -124 23 -66 70 -180 105 -253
l63 -134 -110 -165 -111 -166 370 -369 369 -370 166 111 165 110 134 -63 c73
-35 187 -82 253 -105 66 -22 122 -46 124 -53 3 -7 21 -94 41 -193 l36 -180
524 0 524 0 36 180 c20 99 38 186 41 193 2 7 58 31 124 53 66 23 180 70 253
105 l134 63 165 -110 166 -111 369 370 370 369 -111 166 -110 165 63 134 c35
73 82 187 105 253 22 66 46 122 53 124 7 3 94 21 193 41 l180 36 0 524 0 524
-180 36 c-99 20 -186 38 -193 41 -7 2 -31 58 -53 124 -23 66 -70 180 -105 253
l-63 134 110 165 111 166 -370 369 -369 370 -166 -111 -165 -110 -134 63 c-73
35 -187 82 -253 105 -66 22 -122 46 -124 53 -3 7 -21 94 -41 193 l-36 180
-522 3 c-413 2 -523 0 -527 -10z m836 -457 l33 -168 75 -18 c199 -46 437 -143
616 -253 l80 -48 143 95 143 95 196 -197 197 -196 -95 -143 -95 -143 48 -80
c110 -179 207 -417 253 -616 l18 -75 168 -33 169 -34 0 -277 0 -277 -169 -34
-168 -33 -18 -75 c-46 -199 -143 -437 -253 -616 l-48 -80 95 -143 95 -143
-197 -196 -196 -197 -143 95 -143 95 -80 -48 c-179 -110 -417 -207 -616 -253
l-75 -18 -33 -168 -34 -169 -277 0 -277 0 -34 169 -33 168 -75 18 c-199 46
-437 143 -616 253 l-80 48 -143 -95 -143 -95 -196 197 -197 196 95 143 95 143
-48 80 c-110 179 -207 417 -253 616 l-18 75 -168 33 -169 34 0 277 0 277 169
34 168 33 18 75 c46 199 143 437 253 616 l48 80 -95 143 -95 143 197 196 196
197 143 -95 143 -95 80 48 c179 110 417 207 616 253 l75 18 33 168 34 169 277
0 277 0 34 -169z"/>
<path d="M2385 4199 c-507 -53 -964 -344 -1237 -789 -242 -394 -302 -909 -157
-1353 167 -510 556 -899 1066 -1066 320 -105 686 -105 1006 0 730 239 1206
947 1139 1698 -14 154 -33 250 -73 374 -84 257 -215 471 -405 661 -355 355
-840 527 -1339 475z m355 -304 c296 -40 556 -170 771 -384 351 -352 481 -853
344 -1326 -66 -226 -173 -405 -344 -575 -202 -201 -431 -323 -700 -374 -46 -9
-87 -16 -92 -16 -5 0 -9 67 -9 150 0 147 0 150 23 154 179 39 281 80 404 162
305 203 473 527 473 912 l0 115 -147 -6 c-208 -8 -319 -34 -473 -112 -41 -21
-101 -56 -134 -78 -73 -49 -198 -175 -250 -250 -22 -31 -42 -57 -46 -57 -4 0
-24 26 -46 57 -52 75 -177 201 -250 250 -33 22 -93 57 -134 78 -155 78 -266
104 -472 112 l-148 6 0 -115 c0 -385 168 -709 473 -912 123 -82 225 -123 405
-162 22 -4 22 -7 22 -154 0 -83 -4 -150 -9 -150 -28 0 -186 35 -255 57 -355
111 -672 400 -824 748 -220 505 -106 1092 287 1486 303 303 710 441 1131 384z
m-847 -1524 c32 -11 90 -37 130 -57 100 -52 239 -191 291 -291 36 -71 79 -183
73 -190 -7 -6 -119 37 -190 73 -100 52 -239 191 -291 291 -30 59 -76 173 -76
190 0 5 4 4 63 -16z m1397 16 c0 -17 -46 -131 -76 -190 -52 -100 -191 -239
-291 -291 -71 -36 -183 -79 -190 -73 -6 7 37 119 73 190 52 100 191 239 292
291 86 44 192 84 192 73z"/>
<path d="M2410 3460 l0 -150 150 0 150 0 0 150 0 150 -150 0 -150 0 0 -150z"/>
<path d="M1817 3302 l-107 -107 105 -105 105 -105 108 108 107 107 -105 105
-105 105 -108 -108z"/>
<path d="M3090 3305 l-105 -105 108 -108 107 -107 105 105 105 105 -108 108
-107 107 -105 -105z"/>
</g>
</svg>
