<?xml version="1.0" encoding="utf-8"?>
<!-- Generator: Adobe Illustrator 23.0.3, SVG Export Plug-In . SVG Version: 6.00 Build 0)  -->
<svg version="1.1" id="Layer_1" xmlns="http://www.w3.org/2000/svg" xmlns:xlink="http://www.w3.org/1999/xlink" x="0px" y="0px"
	 viewBox="0 0 512 512" style="enable-background:new 0 0 512 512;" xml:space="preserve">
<style type="text/css">
	.st0{fill:#FFFFFF;}
</style>
<g transform="translate(0.000000,512.000000) scale(0.100000,-0.100000)">
	<path class="st0" d="M2398,5100c-59-31-74-65-123-260c-25-101-47-185-49-187s-53-17-112-33c-60-15-116-31-125-35
		c-12-4-52,32-149,134c-188,198-207,204-379,108c-112-62-147-94-161-149c-10-36-6-58,43-234l55-193l-94-94l-94-94l-187,53
		c-103,30-196,54-207,54s-39-9-63-21c-37-18-52-36-104-123c-114-193-112-200,86-397l144-144l-31-115c-17-63-32-120-33-126
		c-2-6-88-32-191-58c-111-28-199-55-217-68c-51-36-67-88-67-217c0-132,18-186,73-220c18-11,106-38,197-60c211-53,206-50,214-100
		c3-22,18-78,32-123l27-83l-142-135c-197-189-203-209-109-375c107-189,130-195,406-115l171,50l95-95l95-95l-55-187
		c-62-214-63-243-10-299c17-19,63-51,101-72c39-21,69-43,68-49s-84-135-184-288c-99-153-187-296-195-318c-23-65-18-126,16-194
		c17-34,46-73,65-87c77-59,9-56,1350-56c1333,0,1284-2,1357,54c76,57,116,188,86,278c-9,24-97,169-197,322s-183,283-184,288
		s30,27,68,49c83,47,120,84,134,135c12,44,9,61-53,272l-45,152l95,95l95,95l175-50c187-55,234-61,280-37c41,22,64,50,122,152
		c94,166,88,186-108,375l-141,135l31,104c16,57,30,112,30,123c0,24,16,30,210,79c91,22,180,50,199,61c54,34,71,84,71,218
		c0,130-16,182-67,218c-18,13-106,40-217,68c-103,26-189,52-191,58c-1,6-16,63-33,126l-31,115l144,144c198,197,200,204,86,397
		c-52,87-67,105-104,123c-24,12-53,21-64,21s-104-24-207-54l-186-53l-94,94l-94,94l55,193c49,176,53,198,43,234
		c-14,55-49,87-161,149c-172,95-185,92-374-103l-140-144l-85,25c-47,14-104,30-126,35l-42,10l-46,187c-27,106-56,198-67,215
		c-39,54-84,68-221,68C2456,5119,2429,5116,2398,5100z M2649,4913c6-21,26-103,46-182s42-156,50-172c23-44,65-67,176-93
		c57-14,124-32,148-40c54-20,114-20,149-2c16,8,88,76,161,152l134,138l51-28c100-54,96-31,38-235c-53-184-59-221-43-264
		c12-32,256-276,288-288c43-16,80-10,256,41c94,28,176,50,182,50s28-30,49-67l38-66l-143-142c-78-78-146-150-150-161
		c-12-31-10-99,5-142c8-22,27-89,41-148c27-110,50-155,88-176c12-6,105-32,207-58l185-46l3-82l3-81l-36-10c-19-5-105-26-190-46
		c-211-50-220-58-260-223c-13-54-31-117-39-141c-20-54-20-123-2-160c8-15,76-87,150-159c75-72,136-133,136-136c0-4-67-124-76-134
		c-1-2-83,19-181,47c-188,54-237,60-281,36c-32-17-255-241-271-272c-20-38-12-90,39-268c28-96,50-178,50-182c0-15-132-75-143-64
		c-5,5-89,132-187,282l-178,273l71,39c106,57,191,121,291,217c213,205,351,464,401,755c20,117,20,327,0,452
		c-79,492-438,910-920,1072c-195,65-467,84-665,46c-573-108-1006-546-1106-1118c-22-121-21-334,0-457c50-283,188-542,395-743
		c106-102,189-165,297-224l72-38l-179-275c-99-151-183-278-188-283c-9-9-125,45-136,63c-4,6,16,89,44,184c53,180,58,216,41,262
		c-12,30-240,263-277,282c-39,21-94,13-276-39c-98-28-180-49-181-47c-9,10-76,130-76,134c0,3,61,64,136,136c74,72,142,144,150,159
		c18,37,18,106-2,160c-8,24-26,87-39,141c-40,165-48,172-258,222c-85,20-171,42-191,47l-37,10l3,81l3,81l185,47
		c102,25,195,52,207,58c38,21,61,66,88,176c14,59,33,126,41,148c17,48,18,111,3,141c-6,12-74,86-151,163l-140,141l38,67
		c21,36,43,66,49,66c5,0,89-22,185-50c181-52,211-57,253-41c32,12,276,256,288,288c16,43,10,80-43,264c-58,203-61,180,36,233l54,29
		l133-137c73-76,145-144,161-152c35-18,94-18,146,0c22,8,89,27,148,41c115,28,156,50,179,94c8,16,30,93,50,172s40,161,46,182l10,37
		h79h79L2649,4913z M2677,4089c414-46,765-286,948-649c95-189,130-357,122-588c-7-225-59-396-179-589c-99-161-300-343-475-432
		l-42-21l-15,22c-40,63-46,122-46,429v297l46,7c149,22,270,148,289,300c13,103-41,235-124,301c-19,15-60,38-90,51
		c-56,22-58,23-551,23s-495-1-551-23c-107-45-176-124-205-236c-48-191,83-387,280-416l46-7v-297c0-307-6-366-46-429l-15-22l-42,21
		c-175,89-376,271-475,432c-120,193-172,364-179,589c-6,172,6,273,49,408c156,489,599,821,1121,839C2564,4099,2624,4095,2677,4089z
		 M3047,3059c76-28,127-124,104-198c-26-90-92-130-209-131c-64,0-76-3-97-25l-25-24v-368c0-389,3-425,50-530c10-24,228-364,483-756
		c256-391,470-722,476-734c18-35,13-63-18-94l-29-29H2560H1338l-29,29c-18,18-29,40-29,56c0,19,148,253,475,756
		c262,401,485,748,495,772c45,102,50,145,50,469v308h145c142,0,147,1,170,25c38,37,37,88-1,123c-25,22-30,22-267,22
		c-214,0-247,3-283,19c-106,48-134,180-56,265c52,56,49,55,549,56C2859,3070,3028,3066,3047,3059z"/>
	<path class="st0" d="M2386,1597c-34-19-92-100-372-518c-224-333-335-508-339-532c-4-20-4-53-1-73c9-47,68-111,114-124
		c50-14,1494-14,1544,0c46,13,105,77,114,124c3,20,3,53-1,73c-4,24-115,199-339,532c-279,415-339,500-372,518c-35,20-53,23-174,23
		S2421,1617,2386,1597z M2968,980l312-470h-720h-720l87,130l86,130h161c168,1,181,4,204,47c18,33,14,59-12,90c-23,27-29,28-130,33
		l-106,5l55,83l55,82h125c134,0,166,8,184,47s13,63-18,94c-27,27-35,29-101,29c-39,0-70,4-68,9c2,4,26,42,53,84l50,77h95l95-1
		L2968,980z"/>
</g>
</svg>
