<?xml version="1.0" encoding="utf-8"?>
<!-- Generator: Adobe Illustrator 23.0.3, SVG Export Plug-In . SVG Version: 6.00 Build 0)  -->
<svg version="1.1" id="Layer_1" xmlns="http://www.w3.org/2000/svg" xmlns:xlink="http://www.w3.org/1999/xlink" x="0px" y="0px"
	 viewBox="0 0 512 512" style="enable-background:new 0 0 512 512;" xml:space="preserve">
<style type="text/css">
	.st0{fill:#FFFFFF;}
</style>
<g transform="translate(0.000000,512.000000) scale(0.100000,-0.100000)">
	<path class="st0" d="M833,4763c3-197,10-392,17-433c55-368,175-686,367-973c97-145,166-229,284-347c159-159,348-299,538-401
		c45-24,81-46,81-49s-36-25-81-49c-594-317-1016-882-1158-1551c-37-177-43-244-48-602L828,0h151h151v283c0,156,5,333,10,393
		c66,685,473,1283,1086,1593c105,53,304,131,335,131c29,0,187-59,294-109c485-229,867-661,1035-1169c84-255,100-379,100-794V0h150
		h150v328c0,344-10,470-51,657c-117,529-423,1008-849,1329c-105,79-251,172-335,213c-30,15-55,30-55,33s25,18,55,33
		c84,41,230,134,335,213c426,321,732,800,849,1329c41,187,51,313,51,657v328h-150h-150v-170v-170H2560H1130v170v170H979H828
		L833,4763z M3986,4448c-3-18-11-69-16-113c-6-44-19-114-28-155l-18-75l-1361-3l-1361-2l-21,92c-22,99-40,215-41,261v27h1425h1426
		L3986,4448z M3810,3793c0-16-108-206-162-285l-60-88H2561H1535l-62,93c-66,99-153,254-153,275c0,9,256,12,1245,12
		C3250,3800,3810,3797,3810,3793z M3290,3113c0-10-143-117-230-173c-98-63-283-151-398-190l-103-35l-97,34c-197,69-385,171-549,298
		c-46,35-83,66-83,69c0,2,329,4,730,4C2962,3120,3290,3117,3290,3113z"/>
	<path class="st0" d="M2410,1827v-94l-56-12c-30-7-96-33-146-58l-90-45l-64,63l-64,64l-107-108l-108-107l64-64l64-65l-40-78
		c-22-43-48-108-58-145l-18-68h-93h-94V960V810h94h93l18-67c10-38,36-103,58-146l40-78l-64-65l-64-64l108-107l107-108l64,64l64,63
		l90-45c50-25,116-51,146-58l56-12V93V0h150h149l3,90l3,91l90,30c49,17,114,44,143,61l54,31l64-64l64-64l107,108l108,107l-63,63
		l-62,63l41,80c22,44,49,109,58,144l18,65l91,3l92,3v149v149l-92,3l-91,3l-18,65c-9,35-36,100-58,144l-41,80l62,63l63,63l-108,107
		l-107,108l-64-64l-64-64l-54,31c-29,17-94,44-143,61l-90,30l-3,91l-3,90h-149h-150V1827z M2673,1435c87-23,171-69,230-129
		c273-272,146-723-230-821c-235-61-487,80-574,321c-30,83-30,225,0,308C2186,1355,2438,1496,2673,1435z"/>
	<path class="st0" d="M2410,960V810h150h150v150v150h-150h-150V960z"/>
</g>
</svg>
