<?xml version="1.0" encoding="utf-8"?>
<!-- Generator: Adobe Illustrator 23.0.3, SVG Export Plug-In . SVG Version: 6.00 Build 0)  -->
<svg version="1.1" id="Layer_1" xmlns="http://www.w3.org/2000/svg" xmlns:xlink="http://www.w3.org/1999/xlink" x="0px" y="0px"
	 viewBox="0 0 512 512" style="enable-background:new 0 0 512 512;" xml:space="preserve">
<style type="text/css">
	.st0{fill:none;stroke:#FFFFFF;stroke-width:150;}
	.st1{fill:none;stroke:#FFFFFF;stroke-width:150;}
	.st2{fill:none;stroke:#FFFFFF;stroke-width:20;}
	.st3{fill:none;stroke:#FFFFFF;stroke-width:12; }
	.st4{fill:none;stroke:#FFFFFF;stroke-width:12; }
</style>
<g transform="translate(0.000000,512.000000) scale(0.100000,-0.100000)">
	<path class="st0" d="M562,4888c-192-28-363-180-434-387l-23-66V2970V1505l28-78c67-190,193-317,377-379c64-22,76-22,678-26
		c570-3,613-4,608-20c-3-9-26-101-52-204l-46-187l-268-3l-268-3l-39-31c-21-16-46-47-56-67c-23-45-25-129-5-177c20-46,72-96,117-112
		c53-19,2709-19,2762,0c45,16,97,66,117,112c20,48,18,132-5,177c-10,20-35,51-56,67l-39,31l-258,3l-258,3l-46,187
		c-26,103-49,195-52,204c-5,16,36,17,603,20c555,3,613,5,663,22c193,63,335,200,402,386l23,65l3,1425c2,1019-1,1444-9,1492
		c-6,39-28,103-50,149c-74,152-240,287-391,318C4527,4892,646,4900,562,4888z M4522,4481c19-13,46-40,59-59l24-36l3-1068l2-1068
		H2560H510l2,1068l3,1068l24,35c29,43,65,70,105,80c17,4,889,6,1937,6l1905-2L4522,4481z"/>
</g>
<g transform="translate(0.000000,512.000000) scale(0.100000,-0.100000)">
	<path class="st1" d="M2399.4,4054.6c-88.6-33.1-126.7-88.9-138.1-203.4c-8.6-80.4-33.3-133.4-70.5-154.2
		c-32.4-17-131.5-33.1-170.5-26.5c-43.8,7.6-81.9,32.2-93.4,60.6c-9.5,26.5-65.7,53.9-120,60.6c-55.3,5.7-111.5-21.8-189.6-93.7
		c-179.1-166.5-198.2-253.6-81-381.3c64.8-71,76.2-109.8,52.4-175c-31.4-88.9-101.9-142.9-187.7-142.9
		c-85.7,0-159.1-41.6-189.6-107.9c-12.4-28.4-18.1-61.5-18.1-122v-82.3l388.7,1.9l387.8,2.8l5.7,71c11.4,135.3,59.1,245,146.7,338.7
		c69.6,74.7,142.9,122,242.9,157.1c71.5,24.6,93.4,27.4,190.5,27.4c97.2,0,119.1-2.8,190.5-27.4c223.9-77.6,369.7-262.1,388.7-491
		l6.7-75.7l388.7-2.8l387.8-1.9v80.4c0,61.5-4.8,89.9-18.1,116.4c-35.3,68.1-92.4,105-178.2,115.4c-120,15.1-208.7,96.5-207.7,192.1
		c0,57.7,19.1,97.5,75.3,159.9c50.5,55.8,68.6,117.3,52.4,176c-11.4,45.4-60,107.9-145.8,189.2c-133.4,125.8-226.8,128.7-341.1,10.4
		l-56.2-58.7l-79.1,4.7c-135.3,8.5-175.3,46.4-188.6,179.8c-9.5,95.6-41,152.3-103.8,187.3c-39.1,21.8-55.3,23.7-166.7,26.5
		C2470.9,4066.9,2426.1,4064,2399.4,4054.6z"/>
</g>
<circle class="st2" cx="106.8" cy="339.3" r="12.5"/>
<circle class="st2" cx="162" cy="339.3" r="12.5"/>
<line class="st3" x1="169.8" y1="450.9" x2="344.2" y2="450.9"/>
<line class="st4" x1="179.6" y1="411.8" x2="334.4" y2="411.8"/>
</svg>
