<?xml version="1.0" encoding="utf-8"?>
<!-- Generator: Adobe Illustrator 23.0.3, SVG Export Plug-In . SVG Version: 6.00 Build 0)  -->
<svg version="1.1" id="Layer_1" xmlns="http://www.w3.org/2000/svg" xmlns:xlink="http://www.w3.org/1999/xlink" x="0px" y="0px"
	 viewBox="0 0 512 512" style="enable-background:new 0 0 512 512;" xml:space="preserve">
<style type="text/css">
	.st0{fill:#FFFFFF;}
</style>
<g transform="translate(0.000000,512.000000) scale(0.100000,-0.100000)">
	<path class="st0" d="M2855,5104c-201-36-403-117-517-209c-67-54-143-164-189-273c-34-83-79-249-79-293c0-35-12-37-33-5
		c-31,46-170,147-270,195c-113,55-210,82-299,84c-52,2-62-1-79-22c-11-14-19-39-19-61c0-51,31-75,107-85c85-10,199-49,272-92
		c89-52,197-162,248-254c46-80,99-230,110-304l6-46l-49,30c-99,64-281,119-457,141c-129,16-377,13-477-4c-226-40-420-143-585-310
		c-173-174-294-404-351-667c-57-265-2-828,122-1259C535,914,965,510,1550,510c230,0,502,75,636,175l30,23l68-43
		c129-84,332-141,532-152l121-6l-13-61c-24-118-27-190-10-247c66-228,362-268,481-64c19,32,29,68,36,137c18,157,78,281,206,418
		c59,64,164,153,244,208l47,31l63-44c35-24,98-75,139-112c187-168,270-308,291-491c15-134,52-198,141-248c46-25,64-29,128-29
		c85,0,133,20,187,77c75,78,91,186,54,363c-49,236-188,467-406,672l-105,99l51,38c222,165,379,367,445,571c38,117,44,270,15,385
		c-53,213-209,431-438,610l-69,54l131,131c215,214,323,396,376,635c27,122,25,231-5,296c-61,130-228,190-353,125
		c-49-25-108-86-127-133c-9-20-20-74-25-120c-20-174-91-299-262-463c-84-81-208-175-229-175c-17,0-117,71-203,145
		c-173,148-277,324-293,494c-9,98-30,154-75,201c-55,57-109,80-189,80c-104,0-203-60-242-146c-8-18-22-25-57-29
		c-242-31-406-83-526-165c-26-18-48-30-50-28c-2,1-10,42-19,89s-25,111-35,142c-11,30-17,58-14,61c4,3,23,6,44,6c59,0,266,38,359,66
		c114,35,212,81,286,136c153,114,244,358,244,653c-1,140-27,194-113,230C3003,5123,2962,5123,2855,5104z M2987,4933
		c10-25-13-268-31-336c-40-148-110-235-240-297c-120-57-337-110-451-110h-43l5,43c22,182,77,358,142,448c88,122,262,208,514,254
		C2980,4952,2980,4952,2987,4933z M3221,3907c26-20,39-53,39-100c0-60,34-188,70-266c62-132,203-297,348-408c39-31,72-59,72-62
		s-36-26-80-49l-81-44l-53,41c-83,65-237,228-295,315c-97,144-151,289-166,447c-7,72-6,76,20,107c22,27,34,32,68,32
		C3186,3920,3212,3914,3221,3907z M4752,3889c31-30,31-31,25-112c-17-224-131-444-336-647c-145-144-288-245-529-373
		c-289-154-447-282-565-456c-144-215-106-430,118-655c50-50,132-120,183-156c50-35,92-67,92-70s-22-17-48-32s-61-36-78-47l-31-21
		l-71,50c-109,77-256,222-319,317c-175,264-156,522,59,789c122,152,301,287,568,429c80,43,176,98,214,123c244,161,435,370,507,557
		c25,64,35,111,56,254C4608,3919,4694,3947,4752,3889z M1680,3726c209-44,381-134,440-233c38-63,61-83,95-83c40,0,67,20,99,74
		c47,81,152,152,297,201c79,27,213,55,263,55h32l17-90c45-237,167-441,396-662l118-114l-55-40c-79-56-250-227-305-305
		c-191-270-223-559-91-820c78-157,203-303,366-429l86-67l-75-64c-117-99-264-284-328-409c-28-55-40-60-145-60c-226,0-457,73-590,186
		c-68,58-92,58-162-2c-182-157-545-225-823-155c-100,26-240,94-325,159c-362,274-590,860-642,1653c-10,163-10,201,4,302
		c54,381,275,700,582,843c62,28,170,61,256,78C1244,3754,1606,3741,1680,3726z M4338,2723c88-62,232-201,294-283
		c125-164,173-349,133-516c-32-135-96-244-225-378c-135-141-265-234-520-370c-301-162-489-317-621-513c-83-123-138-276-139-385
		c0-52-18-85-54-102c-39-18-78-11-108,21c-64,69,10,357,142,554c155,230,351,393,690,574c236,126,368,221,486,348
		c198,213,228,418,92,629c-55,85-204,230-310,302c-48,33-87,61-85,62c4,4,152,102,155,103C4270,2770,4301,2749,4338,2723z
		 M4015,2520c242-146,405-337,405-475c0-103-91-238-242-359c-79-64-236-166-255-166c-16,0-196,121-270,183c-80,66-157,155-194,227
		c-34,66-33,157,3,230c37,74,112,163,196,232c71,59,249,178,265,178C3928,2570,3970,2547,4015,2520z M4332,1058
		c275-229,448-531,448-784c0-59-38-104-87-104c-68,0-103,43-103,127c0,106-69,281-156,399c-57,77-197,217-273,274
		c-33,25-60,47-60,50c-1,5,149,88,161,89C4266,1110,4297,1086,4332,1058z"/>
	<path class="st0" d="M3883,2371c-39-24-50-68-29-109c8-16,23-32,31-36c88-33,163,61,103,128C3956,2389,3922,2395,3883,2371z"/>
	<path class="st0" d="M3615,2105c-17-16-25-35-25-60s8-44,25-60l24-25h286h287l29,29c17,18,29,40,29,56s-12,38-29,56l-29,29h-287
		h-286L3615,2105z"/>
	<path class="st0" d="M3882,1863c-22-9-44-63-37-93c15-66,97-88,141-36c31,36,31,80-1,111C3962,1869,3916,1877,3882,1863z"/>
	<path class="st0" d="M3615,3985c-17-16-25-35-25-60s8-44,25-60l24-25h286h287l29,29c17,18,29,40,29,56s-12,38-29,56l-29,29h-287
		h-286L3615,3985z"/>
	<path class="st0" d="M3805,3659c-33-19-45-41-45-80c0-29,6-42,26-58c24-19,40-21,144-21h118l27,32c31,36,29,79-5,113
		c-18,17-36,20-133,23C3867,3669,3818,3666,3805,3659z"/>
	<path class="st0" d="M3805,669c-33-19-45-41-45-80c0-29,6-42,26-58c24-19,40-21,144-21h118l27,32c31,36,29,79-5,113
		c-18,17-36,20-133,23C3867,679,3818,676,3805,669z"/>
	<path class="st0" d="M3633,325c-51-22-61-89-20-132c20-23,23-23,308-23c158,0,295,3,304,6c8,4,23,20,31,36c22,42,10,85-29,109
		c-30,17-53,19-297,19C3726,339,3658,336,3633,325z"/>
</g>
</svg>
