<?xml version="1.0" encoding="utf-8"?>
<!-- Generator: Adobe Illustrator 23.0.3, SVG Export Plug-In . SVG Version: 6.00 Build 0)  -->
<svg version="1.1" id="Layer_1" xmlns="http://www.w3.org/2000/svg" xmlns:xlink="http://www.w3.org/1999/xlink" x="0px" y="0px"
	 viewBox="0 0 512 512" style="enable-background:new 0 0 512 512;" xml:space="preserve">
<style type="text/css">
	.st0{fill:#FFFFFF;}
</style>
<g transform="translate(0.000000,512.000000) scale(0.100000,-0.100000)">
	<path class="st0" d="M2179,5038c0-2-13-48-27-103l-27-100l-84-22c-179-46-388-134-561-234l-55-32l-88,53l-89,53l-270-271l-271-270
		l53-89l53-88l-32-55c-100-173-188-382-234-561l-22-84l-100-26l-100-26v-383v-383l100-26l100-26l22-84c46-179,134-388,234-561l32-55
		l-53-88l-53-88l103-104l103-103l-264-4l-264-3l-67-32c-93-44-151-100-196-191c-35-72-37-81-37-172s2-100,37-172
		c45-91,103-147,196-191l67-32l1662-3l1662-2l21-36c69-111,197-223,323-283c106-50,188-71,312-78c241-13,476,74,623,230l52,56v175
		v176h-320h-320v160v160h320h320v177v178l-78,75c-139,136-310,201-529,204c-68,0-123,2-123,2c0,1,19,33,42,70
		c88,146,172,349,221,534l22,85l100,26l100,26v383v383l-100,26l-100,26l-22,85c-47,179-134,387-234,560l-32,55l53,88l53,89l-271,270
		l-270,271l-89-52l-88-53l-40,23c-194,111-431,208-625,256c-35,9-35,10-61,108l-26,100l-381,3C2352,5039,2180,5039,2179,5038z
		 M2841,4788l24-92l80-17c233-47,457-138,653-265c45-30,86-54,89-54s42,21,86,47l79,46l180-181l181-180l-46-79c-26-44-47-83-47-86
		c0-4,22-40,49-82c126-193,226-435,271-660l16-80l92-24l92-24v-257v-257l-92-24l-92-24l-16-80c-33-165-88-321-167-476
		c-101-199-191-316-296-382c-76-49-197-164-238-229l-31-48h-124c-68,0-124,2-124,4s17,15,38,27c151,91,364,290,480,447
		c387,524,449,1238,160,1817c-293,585-858,953-1508,982c-361,16-720-83-1030-284c-674-437-965-1286-704-2047
		c133-385,388-703,750-933c15-9-37-12-246-12l-265-1l-114,114l-114,114l47,80c25,43,46,82,46,85c0,4-22,40-49,82
		c-126,193-226,435-271,660l-16,80l-92,24l-92,24v257v257l92,24l92,24l17,80c47,233,138,457,265,653c30,45,54,86,54,89s-21,42-47,86
		l-46,79l181,180l180,181l79-46c44-26,83-47,86-47c4,0,41,23,84,51c175,115,448,227,653,268l85,17l24,92l24,92h257h257L2841,4788z
		 M2860,4371c645-127,1142-625,1272-1274c32-160,32-434,0-593c-42-210-125-417-234-579l-53-80l-3,358l-2,357h-163h-163l-39,640
		l-39,640h-236h-236l-39-640l-39-640h-83h-83v240v240h-160h-160v160v160h-80h-80v-160v-160h-80h-80v240v240h-80h-80v-240v-240h-80
		h-80v160v160h-80h-80v-160v-160h-160h-160v-602v-603l-56,85c-113,171-193,367-236,582c-32,161-32,433,0,595
		c90,453,349,824,747,1073c177,110,444,200,670,224C2500,4404,2758,4391,2860,4371z M3290,3600v-80h-90h-90v80v80h90h90V3600z
		 M3328,2988c13-205,23-385,22-400v-28h-150h-150v28c-1,15,9,195,22,400l22,372h106h106L3328,2988z M2560,2080v-800h-250h-251
		l-90,35c-162,62-330,165-471,287l-58,50v614v614h560h560V2080z M3680,2320v-80h-480h-480v80v80h480h480V2320z M3680,1866v-214
		l-77-66l-78-65l-3,199l-2,200h-320h-320v-320v-320h-80h-80v400v400h480h480V1866z M3360,1586v-174l-82-41c-82-40-209-91-228-91
		c-6,0-10,90-10,240v240h160h160V1586z M4604,1495c78-22,158-63,224-115l52-42v-69v-69h-320h-320V880V560h320h320v-69v-69l-52-42
		c-110-87-220-127-383-136c-228-13-432,81-559,259c-24,34-52,79-62,100l-18,37H2127c-1290,0-1689,3-1721,12c-86,26-166,136-166,228
		s80,202,166,228c32,9,431,12,1720,12h1679l35,67c53,102,164,209,270,262c47,23,114,48,150,56C4340,1523,4519,1518,4604,1495z"/>
	<path class="st0" d="M1600,2640v-80h80h80v80v80h-80h-80V2640z"/>
	<path class="st0" d="M1920,2640v-80h80h80v80v80h-80h-80V2640z"/>
	<path class="st0" d="M2240,2640v-80h80h80v80v80h-80h-80V2640z"/>
	<path class="st0" d="M1600,2320v-80h80h80v80v80h-80h-80V2320z"/>
	<path class="st0" d="M1920,2320v-80h80h80v80v80h-80h-80V2320z"/>
	<path class="st0" d="M2240,2320v-80h80h80v80v80h-80h-80V2320z"/>
	<path class="st0" d="M1600,2000v-80h80h80v80v80h-80h-80V2000z"/>
	<path class="st0" d="M1920,2000v-80h80h80v80v80h-80h-80V2000z"/>
	<path class="st0" d="M2240,2000v-80h80h80v80v80h-80h-80V2000z"/>
	<path class="st0" d="M1600,1680v-80h80h80v80v80h-80h-80V1680z"/>
	<path class="st0" d="M1920,1680v-80h80h80v80v80h-80h-80V1680z"/>
	<path class="st0" d="M2240,1680v-80h80h80v80v80h-80h-80V1680z"/>
	<path class="st0" d="M425,935c-16-15-25-36-25-55s9-40,25-55c49-50,135-15,135,55c0,41-39,80-80,80C461,960,440,951,425,935z"/>
</g>
</svg>
