<?xml version="1.0" encoding="utf-8"?>
<!-- Generator: Adobe Illustrator 23.0.3, SVG Export Plug-In . SVG Version: 6.00 Build 0)  -->
<svg version="1.1" id="Layer_1" xmlns="http://www.w3.org/2000/svg" xmlns:xlink="http://www.w3.org/1999/xlink" x="0px" y="0px"
	 viewBox="0 0 512 512" style="enable-background:new 0 0 512 512;" xml:space="preserve">
<style type="text/css">
	.st0{fill:#FFFFFF;}
</style>
<g transform="translate(0.000000,512.000000) scale(0.100000,-0.100000)">
	<path class="st0" d="M1765,4954c-217-63-294-89-307-105c-16-19-18-48-18-275v-254h-52c-106,0-205-99-184-183c20-81,98-137,194-137
		c91,0,147,31,183,102c17,34,19,63,19,338c0,165,1,300,3,300s89,25,192,55c104,30,193,55,197,55s8-83,8-185v-185h-52
		c-106,0-205-99-184-183c20-81,98-137,194-137c91,0,147,31,183,102c18,34,19,63,19,383v346l-25,24c-15,16-35,25-52,24
		C2068,5038,1925,5000,1765,4954z"/>
	<path class="st0" d="M2975,5026c-74-32-115-123-97-214c30-143-64-542-187-796c-120-246-213-368-530-689l-255-257l-96,95
		c-116,114-135,119-203,56l-42-40l-58,57l-57,57l-57-58l-58-57l58-58l57-58l-55-54l-55-55l-57,58l-58,57l-57-57l-58-57l57-58l57-58
		l-54-55l-54-55l-58,57l-58,58l-57-58l-58-57l57-57l57-58l-40-42c-63-68-58-87,56-202l94-97l-343-343l-344-344l-32,12
		c-77,26-161,6-230-56c-81-73-101-183-51-280c29-56,297-319,346-339c64-26,146-21,207,13c103,58,155,200,107,294
		c-6,12,22,45,111,134l120,119l232-230c246-243,286-273,411-309c75-22,219-22,294,0c125,37,168,67,361,258l182,181V972V560h-55
		c-46,0-60-4-80-25c-25-24-25-26-25-215s0-191,25-215l24-25h1311h1311l24,25c25,24,25,26,25,215s0,191-25,215c-20,21-34,25-80,25
		h-55v480v480h55c46,0,60,4,80,25c25,24,25,26,25,215s0,191-25,215l-24,25h-271h-270l-137,273c-76,149-138,279-137,288
		c0,8,82,149,183,312c201,328,216,364,193,455c-17,65-59,121-117,157c-43,26-57,30-124,30c-65,0-83-4-124-28c-62-37-86-71-182-266
		c-44-88-82-161-85-161s-44,78-92,173c-47,95-98,187-112,204c-86,102-260,109-359,15c-63-59-92-170-67-248c7-21,94-171,193-333
		c100-162,181-302,181-310c1-9-61-139-137-288l-137-273h-146h-145l34,43c42,51,79,124,101,197s22,227,0,300c-36,123-66,163-306,406
		l-229,231l45,41c319,294,847,500,1258,490c94-3,109-1,134,18c70,51,90,115,69,215c-53,257-403,683-765,931
		C3233,5015,3071,5068,2975,5026z M3205,4826c286-142,660-517,800-801c24-49,47-108,51-129l7-39l-46,5c-60,7-190,72-299,151
		c-188,135-371,316-519,513c-68,91-157,261-166,318l-6,39l44-6C3095,4874,3155,4851,3205,4826z M3128,4355c86-110,337-354,450-437
		l102-76l-57-12c-156-31-383-110-537-187s-345-208-471-323c-52-46-74-60-89-56c-12,4-53,11-92,18l-72,11l97,106
		c266,294,434,601,522,954c17,67,33,128,35,136c3,10,14,1,31-25C3062,4443,3098,4394,3128,4355z M3584,3338c13-13,174-319,356-680
		l332-658h-34h-33l-380,618c-237,386-381,629-383,649c-3,26,2,39,26,63C3505,3367,3548,3370,3584,3338z M4371,3331
		c18-18,29-40,29-57c0-23-122-233-291-502l-28-44l-35,71l-36,71l115,229c66,132,124,236,137,245C4297,3369,4338,3364,4371,3331z
		 M2498,3102c78-30,138-81,343-290c200-203,230-246,248-360c22-135-20-249-136-372l-75-80h-116h-115l105,108
		c119,122,148,177,148,282c0,115-25,156-194,328c-177,180-229,213-337,214c-81,1-133-13-193-53l-47-32l-55,54l-55,54l58,55
		c93,88,182,123,298,116C2414,3124,2469,3113,2498,3102z M2320,2388c0-44-36-78-83-78c-27,0-71,40-349,317c-175,175-318,322-318,327
		c0,6,24,34,52,63l53,53l322-323C2303,2442,2320,2422,2320,2388z M1772,2523c174-175,319-328,323-340c9-31-14-75-47-91
		c-22-10-33-10-60,2c-19,8-167,149-343,325l-310,311l55,55c30,30,57,55,60,55S1598,2697,1772,2523z M2428,2756
		c32-17,285-272,301-303c14-28,14-98,0-126c-6-12-79-91-162-174c-108-109-158-153-175-153c-30,0-72-42-72-72c0-17-61-84-227-250
		c-195-193-233-227-266-233c-81-15-102-4-250,143c-76,76-145,150-154,166c-19,37-19,106,1,145c9,17,20,31,23,31c4,0,50-43,103-95
		c110-107,158-134,241-135c107,0,194,65,229,172c16,48,19,52,63,63c85,21,153,95,164,175c5,36,8,39,44,45c103,18,189,124,189,234
		c-1,83-27,131-135,241c-52,53-95,99-95,103c0,3,12,13,28,21C2313,2773,2393,2774,2428,2756z M1553,2292c277-278,317-322,317-349
		c0-47-34-83-78-83c-34,0-53,17-354,317c-175,175-318,322-318,327c0,14,92,106,105,106C1231,2610,1378,2467,1553,2292z M3799,2356
		c12-18,21-38,21-44s-42-79-92-161c-89-145-94-151-125-151h-33l97,195c54,107,101,195,105,195C3775,2390,3788,2375,3799,2356z
		 M1110,1825l-225-225l-55,55l-55,55l225,225l225,225l55-55l55-55L1110,1825z M3968,2081c23-38,42-72,42-75s-40-6-90-6
		c-49,0-90,3-90,6c0,9,84,144,90,144C3923,2150,3944,2119,3968,2081z M4880,1760v-80H3680H2480v80v80h1200h1200V1760z M1462,1474
		c172-169,213-194,328-194c118,0,154,22,353,218l177,176v-48c0-58,13-84,48-97c27-10,25-12-158-193c-202-199-245-229-359-244
		c-84-12-162,1-240,39c-55,27-101,67-278,242c-117,116-213,215-213,221s30,41,67,78l67,67l27-57C1303,1638,1344,1590,1462,1474z
		 M718,1537l52-53l-55-54l-55-54l-55,54l-55,54l52,53c29,29,55,53,58,53S689,1566,718,1537z M3000,1513c1-27-337-953-347-953
		s-13,103-13,480v480h180C2919,1520,3000,1517,3000,1513z M3898,1095c-117-234-215-425-218-425s-101,191-218,425l-212,425h430h430
		L3898,1095z M4720,1040c0-377-3-480-12-480c-11,0-349,926-348,953c0,4,81,7,180,7h180V1040z M489,1316c125-124,135-137,135-172
		c0-46-31-74-82-74c-34,0-48,11-169,134c-115,115-133,137-133,165c0,43,38,81,81,81C349,1450,371,1432,489,1316z M3197,562
		c-192-1-352,0-355,3c-4,3,209,613,281,805c8,22,32-22,217-390l208-415L3197,562z M4379,975c78-220,141-403,141-407c0-5-160-8-355-8
		h-355l207,415c114,228,210,411,214,407C4234,1378,4301,1195,4379,975z M4880,320v-80H3680H2480v80v80h1200h1200V320z"/>
	<path class="st0" d="M645,3994c-217-63-294-89-307-105c-16-19-18-48-18-275v-254h-52c-106,0-205-99-184-183c20-81,98-137,194-137
		c91,0,147,31,183,102c17,34,19,63,19,338c0,165,1,300,3,300s89,25,192,55c104,30,193,55,197,55s8-83,8-185v-185h-52
		c-106,0-205-99-184-183c20-81,98-137,194-137c91,0,147,31,183,102c18,34,19,63,19,383v346l-25,24c-15,16-35,25-52,24
		C948,4078,805,4040,645,3994z"/>
</g>
</svg>
