<?xml version="1.0" encoding="utf-8"?>
<!-- Generator: Adobe Illustrator 23.0.3, SVG Export Plug-In . SVG Version: 6.00 Build 0)  -->
<svg version="1.1" id="Layer_1" xmlns="http://www.w3.org/2000/svg" xmlns:xlink="http://www.w3.org/1999/xlink" x="0px" y="0px"
	 viewBox="0 0 512 512" style="enable-background:new 0 0 512 512;" xml:space="preserve">
<style type="text/css">
	.st0{fill:#FFFFFF;}
</style>
<g transform="translate(0.000000,512.000000) scale(0.100000,-0.100000)">
	<path class="st0" d="M4282,5097c-32-34-27-72,18-162c82-158,198-293,340-394c79-56,222-131,251-131c32,0,69,39,69,74
		c0,43-16,61-75,86c-123,52-294,193-381,315c-20,28-55,89-79,136c-24,48-51,89-60,93C4333,5126,4303,5120,4282,5097z"/>
	<path class="st0" d="M3410,4790c-34-34-25-76,48-220c179-359,445-652,775-857c110-68,324-173,352-173c50,0,84,55,65,105
		c-7,19-32,36-104,69c-209,97-387,219-549,375c-187,180-302,338-413,566c-35,72-72,136-81,143C3478,4816,3433,4813,3410,4790z"/>
	<path class="st0" d="M905,4505c-54-19-120-91-136-146c-23-84,4-459,51-704c81-420,242-824,474-1185l55-85l-138-140
		c-120-122-143-151-180-225c-45-92-71-194-71-280c0-140,69-315,164-417l52-56L967,708L757,150H481c-265,0-278-1-299-20
		c-30-28-30-82,0-110C203,0,214,0,827,0h624l24,25c32,31,32,69,0,100l-24,25h-267c-209,0-265,3-261,12c2,7,40,109,83,225l79,213
		l500-3l500-2l82-215c45-118,82-218,82-222c1-5-123-8-274-8h-276l-24-25c-14-13-25-36-25-50s11-37,25-50l24-25h1454h1454l21,23
		c29,31,29,77-1,105l-23,22H3508H2413l-210,557l-211,558l119,120c102,103,121,118,136,109c376-241,672-374,1038-469
		c113-29,133-32,160-21c36,15,53,54,39,93c-11,32-19,35-229,93c-512,142-1009,434-1395,820c-537,535-858,1212-935,1970l-7,65
		l394-392c420-419,417-417,469-374c16,13,23,29,23,55c0,35-20,57-447,484c-485,485-476,474-422,527c55,56-54,159,1677-1572
		c1532-1532,1598-1599,1598-1634c0-40-19-63-64-73c-28-7-70,33-1095,1058c-869,869-1071,1066-1092,1066c-41,0-79-36-79-73
		c0-29,94-126,1003-1035l1002-1004l-92,7c-102,7-128,0-144-42c-13-36,5-78,39-92c40-16,213-31,370-32c121,0,145,2,178,19
		c45,23,85,64,108,109s21,144-3,191c-11,20-99,116-195,212l-176,175v538v537l33-14c17-8,79-36,136-62c102-46,103-47,137-31
		c40,20,54,59,33,96c-16,29-13,27-201,115l-138,65v362v363l-262,263c-240,240-265,263-296,263c-25,0-42-8-64-32
		c-110-118-139-305-69-453c88-190,311-286,504-219l37,13v-827v-827L2458,3137C1274,4320,1090,4500,1055,4509
		C1002,4523,954,4522,905,4505z M3748,3561c-18-8-60-14-94-14c-112-1-212,69-249,173c-19,55-19,131,0,177l16,37l180-179l179-180
		L3748,3561z M1580,2090c110-130,280-296,421-412c54-44,99-83,99-87c0-8-153-161-162-161c-3,0-16,25-28,56c-57,153-171,236-325,236
		c-154,1-268-82-325-236c-12-31-25-56-29-56c-14,0-82,114-96,164c-40,131-25,273,41,382c19,33,85,110,147,172l112,113l25-29
		C1474,2216,1528,2152,1580,2090z M1683,1547c21-12,46-35,57-52c14-23,70-158,70-170c0-5-77-35-115-45c-51-13-169-13-220,0
		c-38,10-115,40-115,45c0,10,55,145,68,168C1475,1572,1592,1597,1683,1547z M1395,1147c48-17,85-21,190-21c115,0,138,2,205,26
		c41,14,76,25,76,25c5-8,154-412,154-418c0-5-197-9-439-9h-438l81,215c64,170,84,214,96,209C1328,1170,1362,1158,1395,1147z"/>
	<path class="st0" d="M2449,4449c-34-34-20-84,80-284c182-365,443-711,726-965c186-166,310-260,344-260c52,0,87,42,76,90
		c-4,20-23,41-58,67c-181,130-447,384-590,563c-152,190-309,445-409,665c-28,61-57,118-66,128C2531,4477,2475,4475,2449,4449z"/>
</g>
</svg>
